<svg xmlns="http://www.w3.org/2000/svg" viewBox="0 0 128 128">
	<path d="m64 12-11.571 1.304c-36.263 6.635-53.3 55.32-29.084 83.117 21.712 29.794 72.967 24.019 87.505-9.859C128.273 54.073 100.83 10.399 64 12m0-12c13.412-.03 26.785 4.316 37.618 12.223 34.792 23.298 34.792 80.256 0 103.554-32.905 25.927-87.08 8.273-98.486-32C-11.32 44.478 22.16-1.6 64 0" />
	<path d="M54 56c-3.325 0-6 2.675-6 6s2.675 6 6 6h6v16h-6c-3.325 0-6 2.675-6 6s2.675 6 6 6h20c3.325 0 6-2.675 6-6s-2.675-6-6-6h-2V62c0-3.325-2.675-6-6-6zm10-24a8 8 0 1 0 0 16 8 8 0 1 0 0-16" />
</svg>